<?xml version="1.0" encoding="UTF-8"?>
<svg xmlns="http://www.w3.org/2000/svg" viewBox="0 0 150 150" width="150" height="150">
<path d="M71.81 9.25C64.67 12.22 57.58 14.19 51.35 19.09C37.25 30.17 27.93 48.54 30.09 66.75C32.69 88.74 55.22 109.59 77.48 96.72C85.46 92.11 85.43 87.22 89.25 80.25C90.66 94.64 74.06 104.03 61.75 104.43C46.42 104.93 32.42 94.07 26.27 80.49C15.55 56.78 27.67 30.05 48.53 16.77C53.69 13.48 65.81 7.65 71.81 9.25ZM137.25 52.03C118.92 28.57 87.69 19.15 62.23 38.48C48.23 49.11 39.12 72.56 54.4 86.33C60.52 91.85 64.71 90.77 71.92 92.25C69.54 93.79 65.8 93.63 63.1 93.22C53.81 91.85 45.8 85.3 42.18 76.61C35.82 61.34 41.85 42.98 54.28 32.52C73.84 16.03 101.64 16.89 121.74 32C126.29 35.42 137.54 46.18 137.25 52.03ZM114.25 129.33C129.12 109.45 133.55 87.76 119.7 65.56C108.16 47.06 78.62 35.85 62.11 54.86C55.86 62.07 56.93 66.32 55.25 74.78C53.57 71.1 53.76 67 54.84 63.15C58.57 49.9 70.77 41.36 83.94 39.24C120.29 33.4 142.89 73.47 132.1 104.8C129.59 112.12 121.9 126.48 114.25 129.33ZM62.29 134.25C66.81 133.16 71.55 133.13 76.05 131.77C87.88 128.2 98.26 119.65 103.84 108.61C113.3 89.91 107.08 60.35 83.23 56.59C78.78 55.89 74.67 57 70.37 57.75C72.88 55.42 76.4 54.5 79.75 53.98C93.28 51.86 106.57 60.81 112.78 72.44C126.17 97.57 108.5 126.06 82.87 133.18C76.8 134.87 68.35 136.58 62.29 134.25ZM12.25 73.49C14.19 77.88 14.96 82.72 17.16 87.11C22.04 96.83 30.29 105.07 40.27 109.48C60.04 118.2 90.94 111.6 95.5 87.25C97.08 78.85 93.62 76.27 92.2 69.25C95.31 71.47 97.07 75.68 98.08 79.23C101.96 92.91 95.07 106.72 83.77 114.53C59.95 130.99 28.08 116.99 16.82 92.4C14.29 86.86 11.36 79.68 12.25 73.49Z" fill="#FFFFFF" fill-rule="evenodd" stroke="#FFFFFF" stroke-width="0.25" stroke-linejoin="round"/>
</svg>