<?xml version="1.0" standalone="no"?>
<!DOCTYPE svg PUBLIC "-//W3C//DTD SVG 20010904//EN"
 "http://www.w3.org/TR/2001/REC-SVG-20010904/DTD/svg10.dtd">
<svg version="1.0" xmlns="http://www.w3.org/2000/svg"
 width="150.000000pt" height="150.000000pt" viewBox="0 0 150.000000 150.000000"
 preserveAspectRatio="xMidYMid meet">
<g transform="translate(0.000000,150.000000) scale(0.100000,-0.100000)"
fill="#ffffff" stroke="none">
<path d="M650 1404 c-103 -27 -180 -72 -261 -153 -212 -213 -223 -503 -25
-689 86 -80 151 -105 261 -100 86 3 144 25 199 76 58 55 95 180 65 222 -8 12
-10 10 -5 -9 3 -14 0 -47 -6 -75 -8 -40 -21 -60 -63 -102 -58 -59 -97 -74
-191 -74 -165 0 -311 158 -322 350 -6 99 11 173 60 271 71 143 193 239 354
278 73 18 76 20 34 20 -25 0 -70 -7 -100 -15z"/>
<path d="M775 1288 c-138 -26 -275 -129 -336 -253 -29 -60 -34 -82 -37 -157
-3 -76 -1 -94 21 -140 50 -110 133 -171 236 -172 31 0 65 5 76 12 17 11 14 12
-22 7 -110 -17 -219 71 -243 193 -20 105 24 217 122 307 242 225 632 152 802
-150 15 -26 16 -27 10 -5 -26 102 -156 246 -274 304 -120 58 -238 76 -355 54z"/>
<path d="M783 1096 c-144 -47 -243 -167 -243 -293 0 -45 20 -106 39 -117 6 -4
4 9 -4 28 -32 76 -12 164 52 236 61 67 126 95 229 95 73 0 88 -4 156 -38 292
-144 357 -543 128 -791 -70 -75 -29 -56 49 24 154 156 202 389 122 582 -45
106 -127 195 -226 244 -66 33 -84 37 -167 40 -61 3 -107 -1 -135 -10z"/>
<path d="M781 959 c-42 -8 -124 -49 -136 -69 -3 -6 15 1 41 15 96 51 228 24
306 -63 105 -116 122 -263 49 -417 -75 -159 -228 -254 -409 -256 -52 0 -71 -3
-57 -9 31 -13 185 -11 240 4 135 36 258 135 317 254 31 62 33 73 33 172 0 93
-3 112 -27 162 -36 78 -99 142 -172 177 -69 33 -121 41 -185 30z"/>
<path d="M887 829 c43 -44 73 -110 73 -160 0 -98 -79 -207 -187 -261 -89 -44
-216 -51 -321 -19 -165 50 -290 198 -324 384 -10 58 -13 65 -16 38 -6 -54 27
-181 67 -256 95 -184 300 -295 487 -265 180 29 312 159 322 318 3 34 -1 83 -8
107 -13 46 -75 126 -114 147 -12 6 -2 -8 21 -33z"/>
</g>
</svg>
